<?xml version="1.0" encoding="UTF-8"?>
<svg version="1.1" xmlns="http://www.w3.org/2000/svg" width="360" height="360">
<path d="M0 0 C2.02924624 -0.00322075 4.05849226 -0.00658541 6.08773804 -0.01008606 C10.30833475 -0.0160286 14.52891112 -0.01793057 18.74951172 -0.01733398 C24.15523836 -0.0172316 29.56083589 -0.03098324 34.96653175 -0.04810619 C39.14265546 -0.05921186 43.31874753 -0.06125378 47.49488449 -0.06072426 C49.48917468 -0.0619027 51.48346573 -0.06631683 53.47774124 -0.07405663 C56.2555999 -0.08384527 59.03317197 -0.08098499 61.81103516 -0.07495117 C62.62976105 -0.08057068 63.44848694 -0.08619019 64.29202271 -0.09197998 C72.25487138 -0.04799188 76.41204323 2.43592863 81.9609375 7.91796875 C82.51910156 8.43101563 83.07726562 8.9440625 83.65234375 9.47265625 C85.234375 11.02734375 85.234375 11.02734375 87.5859375 14.16796875 C87.03463167 20.44238044 84.93212113 26.57332709 83.25732422 32.6262207 C82.71383939 34.59495686 82.17894009 36.56589297 81.64453125 38.53710938 C81.29777344 39.79587891 80.95101562 41.05464844 80.59375 42.3515625 C80.28066895 43.49165771 79.96758789 44.63175293 79.64501953 45.80639648 C78.51193215 49.40286495 77.1240194 52.72818381 75.5859375 56.16796875 C74.21042725 56.20555298 74.21042725 56.20555298 72.80712891 56.24389648 C69.35911975 56.33983163 65.91123383 56.43900858 62.46337891 56.5402832 C60.97969119 56.58322105 59.49596699 56.62491887 58.01220703 56.6652832 C49.83180419 56.88868598 41.72123384 57.21323476 33.5859375 58.16796875 C26.91965391 78.97805165 20.33108701 99.80852928 14.0234375 120.73046875 C13.75853516 121.60886414 13.49363281 122.48725952 13.22070312 123.39227295 C10.47257146 132.51196625 7.74214553 141.63689113 5.02445984 150.76570129 C3.91573663 154.4890865 2.80476111 158.21179848 1.69387817 161.93453979 C0.91516767 164.54929222 0.14089304 167.16532929 -0.63305664 169.78149414 C-1.10545614 171.36740251 -1.57802166 172.95326144 -2.05078125 174.5390625 C-2.26163361 175.25673798 -2.47248596 175.97441345 -2.68972778 176.71383667 C-3.68668563 180.043313 -4.81038406 183.08985038 -6.4140625 186.16796875 C-13.53037939 186.34604973 -20.64611803 186.46829006 -27.76416016 186.55249023 C-30.18332389 186.58760452 -32.60234001 186.6353084 -35.02099609 186.69604492 C-38.50655595 186.78135583 -41.99014596 186.82074932 -45.4765625 186.8515625 C-47.08797119 186.905756 -47.08797119 186.905756 -48.73193359 186.96104431 C-54.3699627 186.96396548 -57.67967394 186.52171388 -62.00683594 182.7421875 C-63.15597271 181.56369531 -64.2937805 180.37392373 -65.4140625 179.16796875 C-66.22359375 178.55050781 -67.033125 177.93304688 -67.8671875 177.296875 C-70.079819 175.36803754 -71.18600036 173.85020839 -72.4140625 171.16796875 C-72.12841797 168.25732422 -72.12841797 168.25732422 -71.15625 164.72265625 C-70.97232697 164.04472519 -70.78840393 163.36679413 -70.59890747 162.6683197 C-67.34025874 150.946795 -63.58362018 139.35982501 -59.92714691 127.75762939 C-58.8527034 124.34417881 -57.78395824 120.92894731 -56.71533203 117.51367188 C-56.50350218 116.83668432 -56.29167233 116.15969677 -56.07342339 115.46219444 C-55.64807997 114.10271947 -55.22276841 112.74323452 -54.79748917 111.38373947 C-54.16744322 109.37017942 -53.53688012 107.35678191 -52.90621948 105.34341431 C-49.65638019 94.96490307 -46.44547557 84.57526153 -43.2890625 74.16796875 C-43.08746521 73.50668976 -42.88586792 72.84541077 -42.67816162 72.16409302 C-42.12656306 70.35368356 -41.57878334 68.54211183 -41.03125 66.73046875 C-40.73847168 65.76238281 -40.44569336 64.79429687 -40.14404297 63.796875 C-39.44157686 61.26705726 -38.89238092 58.7486635 -38.4140625 56.16796875 C-42.04227994 56.73229764 -45.66575961 57.32296558 -49.2890625 57.91796875 C-50.30226562 58.07523438 -51.31546875 58.2325 -52.359375 58.39453125 C-61.0983258 59.85102305 -69.67415146 61.7785709 -76.2265625 68.10546875 C-77.31710938 69.13994141 -77.31710938 69.13994141 -78.4296875 70.1953125 C-79.08453125 70.84628906 -79.739375 71.49726563 -80.4140625 72.16796875 C-80.96578125 72.70550781 -81.5175 73.24304688 -82.0859375 73.796875 C-83.21036527 74.90551024 -84.31536464 76.03382903 -85.4140625 77.16796875 C-92.14763954 74.10861526 -98.35815089 68.3172541 -102.4140625 62.16796875 C-102.25080456 56.40238584 -99.39618722 52.00115794 -96.5390625 47.16796875 C-96.05018555 46.33362305 -95.56130859 45.49927734 -95.05761719 44.63964844 C-90.45266324 36.94704782 -85.25563389 29.95707061 -79.4140625 23.16796875 C-78.81207031 22.46414062 -78.21007812 21.7603125 -77.58984375 21.03515625 C-57.33382268 -0.83938466 -27.37843194 0.01030949 0 0 Z " fill="#E23536" transform="translate(187.4140625,86.83203125)"/>
<path d="M0 0 C21.12 0 42.24 0 64 0 C64.33 0.66 64.66 1.32 65 2 C65.99 1.67 66.98 1.34 68 1 C68.99 1.495 68.99 1.495 70 2 C70.33 1.34 70.66 0.68 71 0 C72.70801695 1.51890436 74.39092055 3.06608547 76.0625 4.625 C77.47208984 5.91277344 77.47208984 5.91277344 78.91015625 7.2265625 C81 10 81 10 80.73950195 12.75561523 C79.53644822 18.03372056 78.11484471 23.24144174 76.67138672 28.45825195 C76.12790189 30.42698811 75.59300259 32.39792422 75.05859375 34.36914062 C74.71183594 35.62791016 74.36507812 36.88667969 74.0078125 38.18359375 C73.69473145 39.32368896 73.38165039 40.46378418 73.05908203 41.63842773 C71.92599465 45.2348962 70.5380819 48.56021506 69 52 C67.62448975 52.03758423 67.62448975 52.03758423 66.22119141 52.07592773 C62.77318225 52.17186288 59.32529633 52.27103983 55.87744141 52.37231445 C54.39375369 52.4152523 52.91002949 52.45695012 51.42626953 52.49731445 C43.24586669 52.72071723 35.13529634 53.04526601 27 54 C19.14094018 78.61009508 11.4051582 103.24924312 4 128 C3.01 128 2.02 128 1 128 C0.01 131.96 0.01 131.96 -1 136 C-1.66 136 -2.32 136 -3 136 C-2.938125 136.804375 -2.87625 137.60875 -2.8125 138.4375 C-2.97084707 141.44609426 -3.26688366 143.08103081 -4.25 145.8125 C-6.07997557 150.89862928 -7.24123293 156.08087907 -8.37792969 161.35668945 C-9.79936667 167.72385562 -11.86846015 173.83883171 -14 180 C-20.90498319 180.10137822 -27.80977465 180.1714562 -34.71533203 180.21972656 C-37.06468884 180.23984814 -39.41399554 180.26714851 -41.76318359 180.30175781 C-45.13912315 180.3502504 -48.51440086 180.37296357 -51.890625 180.390625 C-52.94179504 180.41127014 -53.99296509 180.43191528 -55.07598877 180.45318604 C-62.41805143 180.45544787 -62.41805143 180.45544787 -65.50683594 178.03808594 C-65.99958008 177.36551758 -66.49232422 176.69294922 -67 176 C-67.99 175.67 -68.98 175.34 -70 175 C-70.33 172.69 -70.66 170.38 -71 168 C-56.15 168 -41.3 168 -26 168 C-25.34 164.37 -24.68 160.74 -24 157 C-23.25047913 154.21879028 -22.47712449 151.49478875 -21.609375 148.75390625 C-21.38227844 148.01784653 -21.15518188 147.2817868 -20.92120361 146.52342224 C-20.20342305 144.20121716 -19.47708163 141.88180759 -18.75 139.5625 C-18.04328005 137.28797377 -17.33838995 135.01288554 -16.63354492 132.73777771 C-16.15586814 131.1964405 -15.6775061 129.6553155 -15.19848633 128.11439514 C-12.66599815 119.95725624 -10.22150097 111.77424963 -7.7755127 103.59085083 C-5.63649445 96.44476897 -3.47904841 89.30421386 -1.32275391 82.16333008 C-0.77375601 80.34446909 -0.22525426 78.52545827 0.32275391 76.70629883 C3.28746637 66.86532072 6.27626304 57.03215114 9.34375 47.22265625 C9.59644653 46.4075206 9.84914307 45.59238495 10.10949707 44.75254822 C11.88323313 39.11676687 11.88323313 39.11676687 13 38 C16.02977804 37.91128727 19.03667022 37.8848065 22.06640625 37.90234375 C22.97502914 37.9037587 23.88365204 37.90517365 24.81980896 37.90663147 C27.73407221 37.91224807 30.64825981 37.92480335 33.5625 37.9375 C35.53320202 37.94251286 37.50390524 37.94707614 39.47460938 37.95117188 C44.31643559 37.96222289 49.15820495 37.97949862 54 38 C53.98412842 36.89769043 53.96825684 35.79538086 53.9519043 34.65966797 C53.99787889 31.16139799 54.40383642 29.25888077 55.8125 26.125 C59.35819146 18.80622012 59.35819146 18.80622012 61 11 C61.165 10.05125 61.33 9.1025 61.5 8.125 C62.07899525 5.03373755 62.07899525 5.03373755 62 2 C61.16154541 2.0707373 60.32309082 2.14147461 59.45922852 2.21435547 C49.19193066 2.9974253 38.9756321 3.15440043 28.6809082 3.13037109 C25.91026494 3.12494668 23.1397794 3.13038475 20.36914062 3.13671875 C18.58854131 3.13605891 16.8079421 3.1347797 15.02734375 3.1328125 C14.20854233 3.13483673 13.38974091 3.13686096 12.54612732 3.13894653 C8.25217953 3.12141347 4.22919131 2.85372269 0 2 C0 1.34 0 0.68 0 0 Z " fill="#CD0D12" transform="translate(194,91)"/>
<path d="M0 0 C2.12634481 -0.23253623 4.25233321 -0.46988675 6.37451172 -0.73779297 C11.09622437 -1.20934954 15.82217351 -1.10328375 20.5625 -1.0625 C22.07553711 -1.05573242 22.07553711 -1.05573242 23.61914062 -1.04882812 C26.07949147 -1.03716769 28.53971239 -1.02080378 31 -1 C30.47017715 4.19226398 29.94795857 8.63403604 27 13 C23.23479221 14.38958789 19.41280088 14.76540747 15.4375 15.1875 C5.45437495 16.38547501 -4.28184134 17.66602271 -11.8125 24.9375 C-12.53953125 25.62714844 -13.2665625 26.31679687 -14.015625 27.02734375 C-14.67046875 27.67832031 -15.3253125 28.32929688 -16 29 C-16.55171875 29.53753906 -17.1034375 30.07507813 -17.671875 30.62890625 C-18.79630277 31.73754149 -19.90130214 32.86586028 -21 34 C-25.5815835 31.70920825 -27.37205506 30.52006529 -30 26 C-30.5775 25.34 -31.155 24.68 -31.75 24 C-33 22 -33 22 -33.0625 19.6875 C-29.86559116 11.60120117 -22.76512844 7.18148179 -15.125 3.75 C-13.75238039 3.16108729 -12.37818252 2.57577403 -11 2 C-11.66 1.34 -12.32 0.68 -13 0 C-8.52431643 -1.37713341 -4.44823749 -1.48274583 0 0 Z " fill="#CF0D12" transform="translate(123,130)"/>
<path d="M0 0 C2.02924624 -0.00322075 4.05849226 -0.00658541 6.08773804 -0.01008606 C10.30833475 -0.0160286 14.52891112 -0.01793057 18.74951172 -0.01733398 C24.15523836 -0.0172316 29.56083589 -0.03098324 34.96653175 -0.04810619 C39.14265546 -0.05921186 43.31874753 -0.06125378 47.49488449 -0.06072426 C49.48917468 -0.0619027 51.48346573 -0.06631683 53.47774124 -0.07405663 C56.2555999 -0.08384527 59.03317197 -0.08098499 61.81103516 -0.07495117 C62.62976105 -0.08057068 63.44848694 -0.08619019 64.29202271 -0.09197998 C68.45927114 -0.06895941 71.84990035 0.08266522 75.5859375 2.16796875 C76.3984375 4.29296875 76.3984375 4.29296875 76.5859375 6.16796875 C74.6059375 6.49796875 72.6259375 6.82796875 70.5859375 7.16796875 C70.5859375 6.17796875 70.5859375 5.18796875 70.5859375 4.16796875 C61.60664599 4.27531269 52.62744055 4.38791347 43.64830112 4.50730801 C39.47934734 4.56257511 35.31038659 4.61600101 31.14135742 4.6652832 C27.12129856 4.7128711 23.10132761 4.76521161 19.08137321 4.8209095 C17.54433303 4.84135841 16.00726871 4.86006722 14.47018623 4.87704277 C12.32451744 4.90103095 10.17901621 4.93109258 8.03344727 4.96264648 C6.1981118 4.98596291 6.1981118 4.98596291 4.32569885 5.00975037 C1.67404921 4.85813575 1.67404921 4.85813575 0.5859375 6.16796875 C-1.20243872 6.29321334 -2.99634464 6.34370551 -4.7890625 6.35546875 C-5.76617187 6.36964844 -6.74328125 6.38382812 -7.75 6.3984375 C-10.4140625 6.16796875 -10.4140625 6.16796875 -13.4140625 4.16796875 C-13.4140625 4.82796875 -13.4140625 5.48796875 -13.4140625 6.16796875 C-16.50215945 7.93259558 -17.64718386 8.16796875 -21.4140625 8.16796875 C-20.7540625 6.51796875 -20.0940625 4.86796875 -19.4140625 3.16796875 C-20.7340625 3.16796875 -22.0540625 3.16796875 -23.4140625 3.16796875 C-23.7440625 4.15796875 -24.0740625 5.14796875 -24.4140625 6.16796875 C-29.8590625 5.67296875 -29.8590625 5.67296875 -35.4140625 5.16796875 C-35.0840625 6.15796875 -34.7540625 7.14796875 -34.4140625 8.16796875 C-40.3540625 8.49796875 -46.2940625 8.82796875 -52.4140625 9.16796875 C-49.4140625 6.16796875 -49.4140625 6.16796875 -46.4140625 5.16796875 C-46.4140625 4.50796875 -46.4140625 3.84796875 -46.4140625 3.16796875 C-31.25024629 -0.50702671 -15.49963387 0.00583647 0 0 Z " fill="#CB2D2E" transform="translate(187.4140625,86.83203125)"/>
<path d="M0 0 C21.12 0 42.24 0 64 0 C64.495 0.99 64.495 0.99 65 2 C65.99 1.67 66.98 1.34 68 1 C68.99 1.495 68.99 1.495 70 2 C70.33 1.34 70.66 0.68 71 0 C72.70801695 1.51890436 74.39092055 3.06608547 76.0625 4.625 C77.47208984 5.91277344 77.47208984 5.91277344 78.91015625 7.2265625 C81 10 81 10 80.93359375 13.0859375 C80 16 80 16 78 20 C77.67 16.7 77.34 13.4 77 10 C75.68 9.67 74.36 9.34 73 9 C72.34 9.99 71.68 10.98 71 12 C70.34 12 69.68 12 69 12 C69.33 9.36 69.66 6.72 70 4 C68.68 4 67.36 4 66 4 C65.89042969 4.61746094 65.78085937 5.23492187 65.66796875 5.87109375 C64.36904392 12.80925319 62.39651147 19.22212383 59.953125 25.83203125 C59.59734375 26.79496094 59.2415625 27.75789063 58.875 28.75 C58.54242188 29.63171875 58.20984375 30.5134375 57.8671875 31.421875 C57.02099737 33.9375754 56.46024802 36.38879695 56 39 C55.34 39 54.68 39 54 39 C53.55635656 33.01081353 54.5233867 29.02608432 56.91015625 23.5390625 C59.73922837 17.46497455 59.73922837 17.46497455 61 11 C61.165 10.05125 61.33 9.1025 61.5 8.125 C62.07899525 5.03373755 62.07899525 5.03373755 62 2 C60.74231812 2.10610596 60.74231812 2.10610596 59.45922852 2.21435547 C49.19193066 2.9974253 38.9756321 3.15440043 28.6809082 3.13037109 C25.91026494 3.12494668 23.1397794 3.13038475 20.36914062 3.13671875 C18.58854131 3.13605891 16.8079421 3.1347797 15.02734375 3.1328125 C14.20854233 3.13483673 13.38974091 3.13686096 12.54612732 3.13894653 C8.25217953 3.12141347 4.22919131 2.85372269 0 2 C0 1.34 0 0.68 0 0 Z " fill="#E01C1E" transform="translate(194,91)"/>
<path d="M0 0 C0.66 0 1.32 0 2 0 C1.34498424 5.88117352 -0.14204831 11.29882166 -1.87109375 16.94921875 C-2.15348404 17.88425735 -2.43587433 18.81929596 -2.7268219 19.78266907 C-3.32200987 21.74917046 -3.9197072 23.71491393 -4.51977539 25.67993164 C-5.43714659 28.6863418 -6.34512073 31.69547444 -7.25195312 34.70507812 C-7.83277815 36.61996015 -8.41413992 38.53467948 -8.99609375 40.44921875 C-9.26699326 41.34718674 -9.53789276 42.24515472 -9.81700134 43.17033386 C-10.07389236 44.00833023 -10.33078339 44.8463266 -10.59545898 45.7097168 C-10.81894516 46.4436113 -11.04243134 47.1775058 -11.27268982 47.93363953 C-12.02172156 50.06171311 -12.94952287 52.00565205 -14 54 C-21.11631689 54.17808098 -28.23205553 54.30032131 -35.35009766 54.38452148 C-37.76926139 54.41963577 -40.18827751 54.46733965 -42.60693359 54.52807617 C-46.09249345 54.61338708 -49.57608346 54.65278057 -53.0625 54.68359375 C-54.67390869 54.73778725 -54.67390869 54.73778725 -56.31787109 54.79307556 C-61.94680857 54.79599202 -65.26883772 54.35331192 -69.59716797 50.58959961 C-70.75169813 49.41259626 -71.8890609 48.21823278 -73 47 C-73.78632812 46.30132812 -74.57265625 45.60265625 -75.3828125 44.8828125 C-77.25879235 42.99000772 -78.73632743 41.35483012 -80 39 C-79.98470183 35.72619233 -79.2236362 33.02063336 -78 30 C-76.92825237 33.65188082 -77.23588533 36.26432828 -78 40 C-76.02 40 -74.04 40 -72 40 C-71.67 42.31 -71.34 44.62 -71 47 C-69.02 46.505 -69.02 46.505 -67 46 C-67 46.99 -67 47.98 -67 49 C-63.78643985 51.14237343 -62.86952936 51.2616525 -59.16137695 51.31884766 C-58.1805867 51.33871735 -57.19979645 51.35858704 -56.18928528 51.37905884 C-55.13295395 51.39061005 -54.07662262 51.40216125 -52.98828125 51.4140625 C-51.90491989 51.43342865 -50.82155853 51.4527948 -49.70536804 51.4727478 C-46.24115907 51.53258344 -42.77691695 51.5789453 -39.3125 51.625 C-36.96548021 51.66317607 -34.61847448 51.70222758 -32.27148438 51.7421875 C-26.51444766 51.83828824 -20.75732641 51.92332413 -15 52 C-14.80029602 50.96035347 -14.80029602 50.96035347 -14.59655762 49.89970398 C-14.3312323 48.54109001 -14.3312323 48.54109001 -14.06054688 47.1550293 C-13.88616089 46.25568161 -13.7117749 45.35633392 -13.53210449 44.42973328 C-12.95526563 41.79573074 -12.02037916 39.49297181 -11 37 C-10.08312825 33.5820891 -9.29407688 30.13571867 -8.5 26.6875 C-8.07332684 24.85797721 -7.64624932 23.02854867 -7.21875 21.19921875 C-7.01507813 20.32442871 -6.81140625 19.44963867 -6.6015625 18.54833984 C-5.76938215 15.02305638 -4.88914852 11.51131335 -4 8 C-3.34 8 -2.68 8 -2 8 C-1.855625 7.05125 -1.71125 6.1025 -1.5625 5.125 C-1 2 -1 2 0 0 Z " fill="#A84448" transform="translate(195,219)"/>
<path d="M0 0 C0.66 0 1.32 0 2 0 C0.32485476 10.21838598 -2.33965088 21.67930176 -7 31 C-7.91700684 31.02505615 -8.83401367 31.0501123 -9.77880859 31.07592773 C-13.22681775 31.17186288 -16.67470367 31.27103983 -20.12255859 31.37231445 C-21.60624631 31.4152523 -23.08997051 31.45695012 -24.57373047 31.49731445 C-32.75413331 31.72071723 -40.86470366 32.04526601 -49 33 C-50.65 37.95 -52.3 42.9 -54 48 C-54.33 48 -54.66 48 -55 48 C-55 44.7 -55 41.4 -55 38 C-54.01 37.505 -54.01 37.505 -53 37 C-52.53476937 35.10466658 -52.53476937 35.10466658 -52.375 32.9375 C-52.25125 31.638125 -52.1275 30.33875 -52 29 C-50.70263916 28.97494385 -49.40527832 28.9498877 -48.06860352 28.92407227 C-43.27341144 28.83018248 -38.4783705 28.72991751 -33.68334961 28.62768555 C-31.60460943 28.58426666 -29.52583197 28.54259688 -27.44702148 28.50268555 C-24.46586855 28.44515079 -21.48490451 28.38140881 -18.50390625 28.31640625 C-17.10078941 28.29133751 -17.10078941 28.29133751 -15.66932678 28.26576233 C-14.80850998 28.24581711 -13.94769318 28.22587189 -13.06079102 28.20532227 C-11.91828636 28.18200584 -11.91828636 28.18200584 -10.75270081 28.15821838 C-8.97264994 28.18620671 -8.97264994 28.18620671 -8 27 C-7.76807135 25.48530552 -7.58784762 23.96245438 -7.4375 22.4375 C-7.35371094 21.61121094 -7.26992188 20.78492188 -7.18359375 19.93359375 C-7.09271484 18.97646484 -7.09271484 18.97646484 -7 18 C-6.34 18 -5.68 18 -5 18 C-4.2717552 13.00632136 -3.61512818 8.00890086 -3 3 C-2.34 3 -1.68 3 -1 3 C-0.67 2.01 -0.34 1.02 0 0 Z " fill="#AD5154" transform="translate(270,112)"/>
<path d="M0 0 C0 3.38023517 -0.87455622 5.83468937 -2 9 C-2.66 9 -3.32 9 -4 9 C-4.33 11.97 -4.66 14.94 -5 18 C-1.55974272 16.75768487 1.30207814 15.50521315 4 13 C4.79623822 10.90584196 4.79623822 10.90584196 5 9 C5.99 9 6.98 9 8 9 C7.67 10.32 7.34 11.64 7 13 C7.66 13 8.32 13 9 13 C9 13.66 9 14.32 9 15 C8.33613281 15.30292969 7.67226562 15.60585937 6.98828125 15.91796875 C1.81658396 18.37169374 -2.23382994 20.5692117 -6 25 C-7.175625 26.2375 -7.175625 26.2375 -8.375 27.5 C-10.23275544 29.86113278 -10.23275544 29.86113278 -10 32.5625 C-8.8239412 35.42914332 -7.32031952 36.97907654 -5 39 C-5.33 39.66 -5.66 40.32 -6 41 C-7.29477062 39.73232923 -8.58570339 38.46073776 -9.875 37.1875 C-10.59429687 36.47980469 -11.31359375 35.77210938 -12.0546875 35.04296875 C-16.01466985 30.8841921 -16.01466985 30.8841921 -15.95703125 27.41015625 C-14.61253337 22.61935359 -12.22971348 18.68987002 -9.6875 14.4375 C-9.20087891 13.60025391 -8.71425781 12.76300781 -8.21289062 11.90039062 C-5.73013753 7.68004452 -3.20588395 3.72369894 0 0 Z " fill="#E42122" transform="translate(101,119)"/>
<path d="M0 0 C8.91 0 17.82 0 27 0 C27 0.33 27 0.66 27 1 C14.625 1.495 14.625 1.495 2 2 C0.72799721 6.08297193 -0.54260881 10.16637118 -1.8125 14.25 C-2.00852814 14.87927399 -2.20455627 15.50854797 -2.40652466 16.15689087 C-4.96869013 24.38348387 -7.49511023 32.61977572 -9.9765625 40.87109375 C-10.71990833 43.33459059 -11.46362306 45.79797585 -12.20736694 48.26135254 C-12.69406156 49.87858229 -13.17845845 51.49650531 -13.66055298 53.1151123 C-14.33970954 55.39487649 -15.02652128 57.6722082 -15.71484375 59.94921875 C-15.9165921 60.63439072 -16.11834045 61.31956268 -16.32620239 62.02549744 C-17.2210615 64.96250895 -17.79421264 66.79421264 -20 69 C-21.07174496 63.25154976 -21.3460425 60.95214291 -18 56 C-17.74803871 53.29046449 -17.74803871 53.29046449 -18 51 C-18.99 50.67 -19.98 50.34 -21 50 C-20.67 49.34 -20.34 48.68 -20 48 C-18.35 48 -16.7 48 -15 48 C-14.86722656 47.39671875 -14.73445312 46.7934375 -14.59765625 46.171875 C-14.42105469 45.37265625 -14.24445313 44.5734375 -14.0625 43.75 C-13.88847656 42.96109375 -13.71445313 42.1721875 -13.53515625 41.359375 C-13.19579368 39.86320716 -12.8314538 38.37231071 -12.43359375 36.890625 C-11.8882322 34.83593675 -11.8882322 34.83593675 -12 32 C-12 29.33333333 -12 26.66666667 -12 24 C-9 25 -9 25 -8 26 C-8.061875 25.278125 -8.12375 24.55625 -8.1875 23.8125 C-8 21 -8 21 -6.65625 18.84375 C-4.56970442 15.26119062 -3.48344112 11.64432033 -2.3125 7.6875 C-1.549375 5.150625 -0.78625 2.61375 0 0 Z " fill="#F06867" transform="translate(205,128)"/>
<path d="M0 0 C10.23 0 20.46 0 31 0 C32 9 32 9 31 13 C30.34 11.35 29.68 9.7 29 8 C26.63019987 10.95377498 26.63019987 10.95377498 27 15 C26.54625 15.598125 26.0925 16.19625 25.625 16.8125 C23.5095191 19.66026275 22.8634969 22.62220332 22 26 C21.51146712 27.79482731 21.01101597 29.58644412 20.5 31.375 C20.2628125 32.22835937 20.025625 33.08171875 19.78125 33.9609375 C19 36 19 36 17 37 C16.34 37.99 15.68 38.98 15 40 C15.65462143 34.56880021 16.82890241 29.44925174 18.3125 24.1875 C18.53325195 23.39649902 18.75400391 22.60549805 18.98144531 21.79052734 C20.43092081 16.70693521 22.08258471 11.79474481 24.203125 6.9453125 C25.17551238 4.70400661 25.17551238 4.70400661 26 1 C17.42 1 8.84 1 0 1 C0 0.67 0 0.34 0 0 Z " fill="#EA4E4F" transform="translate(128,128)"/>
<path d="M0 0 C21.12 0 42.24 0 64 0 C63.67 1.65 63.34 3.3 63 5 C62.505 3.515 62.505 3.515 62 2 C60.74231812 2.10610596 60.74231812 2.10610596 59.45922852 2.21435547 C49.19193066 2.9974253 38.9756321 3.15440043 28.6809082 3.13037109 C25.91026494 3.12494668 23.1397794 3.13038475 20.36914062 3.13671875 C18.58854131 3.13605891 16.8079421 3.1347797 15.02734375 3.1328125 C14.20854233 3.13483673 13.38974091 3.13686096 12.54612732 3.13894653 C8.25217953 3.12141347 4.22919131 2.85372269 0 2 C0 1.34 0 0.68 0 0 Z " fill="#DE1014" transform="translate(194,91)"/>
<path d="M0 0 C0.99 0 1.98 0 3 0 C3 0.66 3 1.32 3 2 C3.763125 1.79375 4.52625 1.5875 5.3125 1.375 C8 1 8 1 11 3 C13.1912535 3.29075518 13.1912535 3.29075518 15.59765625 3.23046875 C16.48130859 3.22853516 17.36496094 3.22660156 18.27539062 3.22460938 C19.19513672 3.21236328 20.11488281 3.20011719 21.0625 3.1875 C22.44791992 3.1865332 22.44791992 3.1865332 23.86132812 3.18554688 C28.58778865 3.32703011 28.58778865 3.32703011 33 2 C35.2675196 1.79307806 37.53946324 1.63328802 39.8125 1.5 C43.97037801 1.25464577 47.93613602 0.9288832 52 0 C52.495 0.99 52.495 0.99 53 2 C52.67 2.99 52.34 3.98 52 5 C45.09501681 5.10137822 38.19022535 5.1714562 31.28466797 5.21972656 C28.93531116 5.23984814 26.58600446 5.26714851 24.23681641 5.30175781 C20.86087685 5.3502504 17.48559914 5.37296357 14.109375 5.390625 C13.05820496 5.41127014 12.00703491 5.43191528 10.92401123 5.45318604 C3.60615538 5.45544041 3.60615538 5.45544041 0.30566406 2.97558594 C-0.12520508 2.32364258 -0.55607422 1.67169922 -1 1 C-0.67 0.67 -0.34 0.34 0 0 Z " fill="#BD090F" transform="translate(128,266)"/>
<path d="M0 0 C1.32 0.33 2.64 0.66 4 1 C3.40832031 1.51949219 2.81664063 2.03898438 2.20703125 2.57421875 C-1.9859679 6.2747286 -6.10837707 9.98284084 -10 14 C-14.5815835 11.70920825 -16.37205506 10.52006529 -19 6 C-19.98244845 4.65368175 -20.97676564 3.31558703 -22 2 C-19.96339708 3.01830146 -17.9589733 4.0243596 -16 5.1875 C-13.57136965 6.17413108 -12.42552909 5.86626039 -10 5 C-10 4.34 -10 3.68 -10 3 C-7 3 -4 3 -1 3 C-0.67 2.01 -0.34 1.02 0 0 Z " fill="#B70F13" transform="translate(112,150)"/>
<path d="M0 0 C8.91 0 17.82 0 27 0 C27 0.33 27 0.66 27 1 C14.625 1.495 14.625 1.495 2 2 C1.37351563 4.08183594 0.74703125 6.16367188 0.1015625 8.30859375 C-0.50888897 10.31803528 -1.12198765 12.32665091 -1.73535156 14.33520508 C-2.16098271 15.73410195 -2.58384642 17.13384392 -3.00390625 18.53442383 C-3.60736177 20.54475618 -4.22062864 22.55186248 -4.8359375 24.55859375 C-5.20251465 25.76829834 -5.5690918 26.97800293 -5.94677734 28.22436523 C-7 31 -7 31 -9 32 C-10.13350534 34.01669827 -10.13350534 34.01669827 -11 36 C-13 33 -13 33 -12.625 30.5625 C-12.41875 29.716875 -12.2125 28.87125 -12 28 C-12 26.68 -12 25.36 -12 24 C-9 25 -9 25 -8 26 C-8.061875 25.278125 -8.12375 24.55625 -8.1875 23.8125 C-8 21 -8 21 -6.65625 18.84375 C-4.56970442 15.26119062 -3.48344112 11.64432033 -2.3125 7.6875 C-1.549375 5.150625 -0.78625 2.61375 0 0 Z " fill="#F54F50" transform="translate(205,128)"/>
<path d="M0 0 C0.66 0 1.32 0 2 0 C1.35622648 5.46122478 0.12907699 10.54642632 -1.4375 15.8125 C-1.65470703 16.57498047 -1.87191406 17.33746094 -2.09570312 18.12304688 C-3.7534657 23.7534657 -3.7534657 23.7534657 -6 26 C-6.69748583 27.31747324 -7.36959957 28.64914193 -8 30 C-8.33161884 24.80463817 -7.50580433 21.03603647 -5.734375 16.15625 C-4.82090959 13.47416007 -4.35972088 10.80582285 -4 8 C-3.34 8 -2.68 8 -2 8 C-1.7834375 6.576875 -1.7834375 6.576875 -1.5625 5.125 C-1 2 -1 2 0 0 Z " fill="#AB1D24" transform="translate(195,219)"/>
<path d="M0 0 C1.28388529 3.61919605 0.69974952 5.96682862 -0.36328125 9.60546875 C-0.67330078 10.67087891 -0.98332031 11.73628906 -1.30273438 12.83398438 C-1.63595703 13.94064453 -1.96917969 15.04730469 -2.3125 16.1875 C-2.79493164 17.86489258 -2.79493164 17.86489258 -3.28710938 19.57617188 C-5.10320533 25.71808162 -5.10320533 25.71808162 -6 28 C-6.66 28.33 -7.32 28.66 -8 29 C-7.89171875 28.02160156 -7.89171875 28.02160156 -7.78125 27.0234375 C-7.28243834 22.3262944 -6.87548754 17.73147344 -7 13 C-6.34 13 -5.68 13 -5 13 C-5.061875 11.576875 -5.061875 11.576875 -5.125 10.125 C-5 7 -5 7 -3 5 C-2.67 4.01 -2.34 3.02 -2 2 C-1.34 2 -0.68 2 0 2 C0 1.34 0 0.68 0 0 Z " fill="#EC5753" transform="translate(184,198)"/>
<path d="M0 0 C0.495 0.99 0.495 0.99 1 2 C-12.86 2 -26.72 2 -41 2 C-41.66 5.96 -42.32 9.92 -43 14 C-43.60578253 16.01927511 -44.23589619 18.03516163 -45 20 C-45.33 20 -45.66 20 -46 20 C-46 16.7 -46 13.4 -46 10 C-45.34 9.67 -44.68 9.34 -44 9 C-43.67 6.36 -43.34 3.72 -43 1 C-28.81 0.67 -14.62 0.34 0 0 Z " fill="#9D151A" transform="translate(261,140)"/>
<path d="M0 0 C0.33 0.99 0.66 1.98 1 3 C1.66 3.33 2.32 3.66 3 4 C3 4.99 3 5.98 3 7 C1.68 7 0.36 7 -1 7 C-3.25 7.5 -3.25 7.5 -5 9 C-5.12375 9.969375 -5.2475 10.93875 -5.375 11.9375 C-5.58125 12.948125 -5.7875 13.95875 -6 15 C-9.0625 16.875 -9.0625 16.875 -12 18 C-12 17.01 -12 16.02 -12 15 C-11.34 15 -10.68 15 -10 15 C-9.71125 13.948125 -9.4225 12.89625 -9.125 11.8125 C-6.74418605 3.74418605 -6.74418605 3.74418605 -4 1 C-1.875 0.375 -1.875 0.375 0 0 Z " fill="#D01211" transform="translate(109,113)"/>
<path d="M0 0 C0 0.33 0 0.66 0 1 C-1.01199463 1.15819214 -1.01199463 1.15819214 -2.04443359 1.31958008 C-5.1557913 1.81010465 -8.26535479 2.31123832 -11.375 2.8125 C-12.96634766 3.0609668 -12.96634766 3.0609668 -14.58984375 3.31445312 C-21.25067452 4.39734893 -27.5944979 5.8717087 -34 8 C-34 7.34 -34 6.68 -34 6 C-34.66 5.34 -35.32 4.68 -36 4 C-34.02 4 -32.04 4 -30 4 C-29.67 3.34 -29.34 2.68 -29 2 C-26.3734341 1.5103525 -23.83841778 1.1506479 -21.1875 0.875 C-20.42445557 0.79008301 -19.66141113 0.70516602 -18.87524414 0.61767578 C-12.57424357 -0.03905008 -6.33366155 -0.21966456 0 0 Z " fill="#AA3135" transform="translate(150,142)"/>
<path d="M0 0 C1.73488738 1.46198375 3.46012621 2.93279272 5.171875 4.421875 C6.58883434 5.64506212 8.03830192 6.83064153 9.5 8 C11 10 11 10 10.875 13 C10 16 10 16 8 20 C7.67 16.7 7.34 13.4 7 10 C5.68 9.67 4.36 9.34 3 9 C2.01 10.485 2.01 10.485 1 12 C0.34 12 -0.32 12 -1 12 C-0.67 9.36 -0.34 6.72 0 4 C-1.32 3.34 -2.64 2.68 -4 2 C-3.34 1.67 -2.68 1.34 -2 1 C-1.34 1.33 -0.68 1.66 0 2 C0 1.34 0 0.68 0 0 Z " fill="#C23538" transform="translate(264,91)"/>
<path d="M0 0 C0.66 0.33 1.32 0.66 2 1 C1.34 3.64 0.68 6.28 0 9 C-7.68483539 9.67453101 -15.28410183 10.1567564 -23 10 C-23 9.67 -23 9.34 -23 9 C-18.545 8.505 -18.545 8.505 -14 8 C-14 7.34 -14 6.68 -14 6 C-11.36 6 -8.72 6 -6 6 C-5.67 5.01 -5.34 4.02 -5 3 C-4.01 3.99 -3.02 4.98 -2 6 C-1.34 4.02 -0.68 2.04 0 0 Z " fill="#BF0910" transform="translate(151,133)"/>
<path d="M0 0 C0.33 0 0.66 0 1 0 C1 3.63 1 7.26 1 11 C0.34 11 -0.32 11 -1 11 C-1.12117187 11.72445312 -1.24234375 12.44890625 -1.3671875 13.1953125 C-3.85355649 27.53974895 -3.85355649 27.53974895 -9 32 C-7.52143235 24.83865468 -5.5420279 17.91867727 -3.375 10.9375 C-3.05015625 9.88111328 -2.7253125 8.82472656 -2.390625 7.73632812 C-1.59685528 5.15657652 -0.79992286 2.57784892 0 0 Z " fill="#D57F80" transform="translate(142,168)"/>
<path d="M0 0 C0.66 0.33 1.32 0.66 2 1 C2 3.64 2 6.28 2 9 C11.9 9.33 21.8 9.66 32 10 C32 10.33 32 10.66 32 11 C20.78 11.33 9.56 11.66 -2 12 C-1 1 -1 1 0 0 Z " fill="#DC1417" transform="translate(119,247)"/>
<path d="M0 0 C0.66 0.33 1.32 0.66 2 1 C1.71888975 4.373323 1.3156078 5.70242693 -1.1875 8.0625 C-2.5796875 9.0215625 -2.5796875 9.0215625 -4 10 C-5.03125 10.7425 -6.0625 11.485 -7.125 12.25 C-10 14 -10 14 -13 14 C-10.38256198 8.10428565 -5.28256657 3.59214527 0 0 Z " fill="#CC3D3D" transform="translate(119,100)"/>
<path d="M0 0 C0 3.38023517 -0.87455622 5.83468937 -2 9 C-2.66 9 -3.32 9 -4 9 C-4.02578125 9.69867188 -4.0515625 10.39734375 -4.078125 11.1171875 C-4.13484375 12.02726563 -4.1915625 12.93734375 -4.25 13.875 C-4.29640625 14.77992188 -4.3428125 15.68484375 -4.390625 16.6171875 C-5 19 -5 19 -6.859375 20.3203125 C-9 21 -9 21 -12 21 C-10.57298364 15.92356475 -8.32425022 12.02446597 -5.4375 7.6875 C-5.02564453 7.05521484 -4.61378906 6.42292969 -4.18945312 5.77148438 C-1.18752426 1.18752426 -1.18752426 1.18752426 0 0 Z " fill="#CB4141" transform="translate(101,119)"/>
<path d="M0 0 C1.33332095 2.6666419 0.67102033 4.16680303 0 7 C0.66 7 1.32 7 2 7 C2 6.34 2 5.68 2 5 C2.66 5 3.32 5 4 5 C4 4.34 4 3.68 4 3 C4.66 3 5.32 3 6 3 C6 2.34 6 1.68 6 1 C6.66 1 7.32 1 8 1 C6.89212734 3.3009663 5.74570534 5.37673284 4.3125 7.5 C2.82588599 9.83411295 2.82588599 9.83411295 3.0625 12.0625 C4.27616612 14.57074331 5.94560816 16.14442027 8 18 C7.67 18.66 7.34 19.32 7 20 C5.70522938 18.73232923 4.41429661 17.46073776 3.125 16.1875 C2.40570313 15.47980469 1.68640625 14.77210938 0.9453125 14.04296875 C-1 12 -1 12 -3 9 C-2.68074747 5.16896958 -2.15546298 3.23319447 0 0 Z " fill="#DC4C4D" transform="translate(88,140)"/>
<path d="M0 0 C0.66 0 1.32 0 2 0 C1.34 2.97 0.68 5.94 0 9 C-16.17 9 -32.34 9 -49 9 C-49 8.67 -49 8.34 -49 8 C-26.23 7.505 -26.23 7.505 -3 7 C-2.01 4.69 -1.02 2.38 0 0 Z " fill="#E92729" transform="translate(168,250)"/>
<path d="M0 0 C0.66 0 1.32 0 2 0 C2.35765896 6.58357411 1.95261922 11.09476157 -1 17 C-1.185625 17.78375 -1.37125 18.5675 -1.5625 19.375 C-1.706875 19.91125 -1.85125 20.4475 -2 21 C-2.66 21.33 -3.32 21.66 -4 22 C-4.66 22.99 -5.32 23.98 -6 25 C-5.33854315 19.33580057 -4.01244028 14.03729239 -2.4375 8.5625 C-2.20353516 7.73556641 -1.96957031 6.90863281 -1.72851562 6.05664062 C-1.15636985 4.03661574 -0.57874796 2.01814324 0 0 Z " fill="#D67270" transform="translate(149,143)"/>
<path d="M0 0 C1.49545905 2.9909181 0.34011578 4.73747923 -0.65234375 7.8828125 C-1.01650391 9.04941406 -1.38066406 10.21601563 -1.75585938 11.41796875 C-2.14580078 12.64128906 -2.53574219 13.86460937 -2.9375 15.125 C-3.51661133 16.97158203 -3.51661133 16.97158203 -4.10742188 18.85546875 C-5.06507517 21.90577185 -6.02953405 24.95375381 -7 28 C-7.33 28 -7.66 28 -8 28 C-8.28627675 22.65616725 -7.86111821 18.9343367 -5.7890625 14.015625 C-4.97633933 11.93955988 -4.47548314 9.92593981 -4 7.75 C-3.09247568 4.3467838 -2.33903866 2.55167854 0 0 Z " fill="#B9585A" transform="translate(189,244)"/>
<path d="M0 0 C1.07174763 3.65188082 0.76411467 6.26432828 0 10 C1.98 10 3.96 10 6 10 C6.33 12.31 6.66 14.62 7 17 C8.32 16.67 9.64 16.34 11 16 C11 17.98 11 19.96 11 22 C8.60477297 20.06539356 6.29009206 18.05789585 4 16 C3.38253906 15.45859375 2.76507813 14.9171875 2.12890625 14.359375 C0.37055502 12.62132806 -0.90644485 11.22281823 -2 9 C-1.90216389 5.77655752 -1.13184597 3.00689201 0 0 Z " fill="#C74647" transform="translate(117,249)"/>
<path d="M0 0 C1.32 0.33 2.64 0.66 4 1 C3.40832031 1.51949219 2.81664063 2.03898438 2.20703125 2.57421875 C-1.9859679 6.2747286 -6.10837707 9.98284084 -10 14 C-11.32 13.34 -12.64 12.68 -14 12 C-14 11.67 -14 11.34 -14 11 C-10.535 10.505 -10.535 10.505 -7 10 C-7.66 7.69 -8.32 5.38 -9 3 C-6.33333333 3 -3.66666667 3 -1 3 C-0.67 2.01 -0.34 1.02 0 0 Z " fill="#AF262B" transform="translate(112,150)"/>
<path d="M0 0 C-5.22030627 5.76374509 -12.50531671 7.45493212 -20 8 C-17.63053272 5.33434931 -15.19636154 3.92561586 -12 2.375 C-11.13375 1.94960937 -10.2675 1.52421875 -9.375 1.0859375 C-5.73555042 -0.57815293 -3.81604553 -1.18428999 0 0 Z " fill="#D15353" transform="translate(141,92)"/>
<path d="M0 0 C0.33 0 0.66 0 1 0 C1.22281874 1.91503674 1.42771076 3.83216506 1.625 5.75 C1.74101563 6.81734375 1.85703125 7.8846875 1.9765625 8.984375 C2.00029475 12.03792399 1.61420985 13.46162421 0 16 C-1.32 16 -2.64 16 -4 16 C-2.98408579 10.53135543 -1.92908943 5.23609987 0 0 Z " fill="#D03E41" transform="translate(122,232)"/>
<path d="M0 0 C-0.3492558 3.14330223 -0.83925733 4.79491452 -2.8125 7.3125 C-5 9 -5 9 -9 9 C-8.6875 5.625 -8.6875 5.625 -8 2 C-4.77208445 -0.1519437 -3.71599191 -0.20086443 0 0 Z " fill="#DB1213" transform="translate(128,99)"/>
<path d="M0 0 C2.97903734 2.97903734 4 5.80285329 4 10 C3.34 10 2.68 10 2 10 C2 9.34 2 8.68 2 8 C1.01 8 0.02 8 -1 8 C-1.28875 9.134375 -1.5775 10.26875 -1.875 11.4375 C-2.24625 12.613125 -2.6175 13.78875 -3 15 C-3.99 15.495 -3.99 15.495 -5 16 C-4.67 13.03 -4.34 10.06 -4 7 C-3.01 6.67 -2.02 6.34 -1 6 C-0.67 4.02 -0.34 2.04 0 0 Z " fill="#E7575A" transform="translate(148,158)"/>
<path d="M0 0 C0.77916092 5.02125926 1.13016601 8.97703996 0 14 C-1.32 14 -2.64 14 -4 14 C-3.9278125 13.39671875 -3.855625 12.7934375 -3.78125 12.171875 C-3.6884375 11.37265625 -3.595625 10.5734375 -3.5 9.75 C-3.4071875 8.96109375 -3.314375 8.1721875 -3.21875 7.359375 C-2.93845381 4.73109603 -2.93845381 4.73109603 -3 1 C-1 0 -1 0 0 0 Z " fill="#DA1115" transform="translate(126,234)"/>
<path d="M0 0 C1.20101451 3.55193652 0.8293019 6.27599707 0.1875 9.9375 C0.01605469 10.95714844 -0.15539062 11.97679687 -0.33203125 13.02734375 C-0.96726125 15.85430299 -1.84306891 18.34930978 -3 21 C-4.24481025 17.26556924 -3.59036631 14.87017914 -3 11 C-2.96364237 9.0003305 -2.95123402 6.99940538 -3 5 C-2.34 5 -1.68 5 -1 5 C-0.67 3.35 -0.34 1.7 0 0 Z " fill="#E64B4A" transform="translate(180,206)"/>
<path d="M0 0 C1.30361449 3.59531893 0.69245659 5.48620379 -0.8125 8.9375 C-1.16957031 9.77152344 -1.52664062 10.60554687 -1.89453125 11.46484375 C-2.44173828 12.71974609 -2.44173828 12.71974609 -3 14 C-3.67183818 15.66458874 -4.3400321 17.33066942 -5 19 C-5.66 19 -6.32 19 -7 19 C-6.67 16.69 -6.34 14.38 -6 12 C-5.34 12 -4.68 12 -4 12 C-3.67 10.02 -3.34 8.04 -3 6 C-2.34 6 -1.68 6 -1 6 C-0.67 4.02 -0.34 2.04 0 0 Z " fill="#AE393E" transform="translate(214,160)"/>
<path d="M0 0 C-0.33 0.66 -0.66 1.32 -1 2 C-1.66 2 -2.32 2 -3 2 C-3 2.66 -3 3.32 -3 4 C-3.66 4 -4.32 4 -5 4 C-5 4.66 -5 5.32 -5 6 C-5.66 6 -6.32 6 -7 6 C-7 6.66 -7 7.32 -7 8 C-7.66 8 -8.32 8 -9 8 C-8.75 4.625 -8.75 4.625 -8 1 C-5.20799413 -1.31062555 -3.32874667 -1.1888381 0 0 Z " fill="#C4120F" transform="translate(97,139)"/>
<path d="M0 0 C1.21065165 3.63195496 0.62784815 5.06531629 -0.4375 8.6875 C-0.86869141 10.17830078 -0.86869141 10.17830078 -1.30859375 11.69921875 C-1.53675781 12.45847656 -1.76492188 13.21773437 -2 14 C-2.66 14 -3.32 14 -4 14 C-4 11.03 -4 8.06 -4 5 C-3.34 5 -2.68 5 -2 5 C-2 3.68 -2 2.36 -2 1 C-1.34 0.67 -0.68 0.34 0 0 Z " fill="#B23F44" transform="translate(267,125)"/>
<path d="M0 0 C1.09089489 4.36357958 1.21644993 7.5267014 1 12 C0.34 12.66 -0.32 13.32 -1 14 C-1.99 14 -2.98 14 -4 14 C-4 12.02 -4 10.04 -4 8 C-3.34 8 -2.68 8 -2 8 C-1.34 5.36 -0.68 2.72 0 0 Z " fill="#C53035" transform="translate(127,221)"/>
<path d="M0 0 C0.97812873 3.05628064 1.00835683 4.85277447 0.00390625 7.890625 C-0.33930664 8.95410156 -0.33930664 8.95410156 -0.68945312 10.0390625 C-0.93630859 10.76867187 -1.18316406 11.49828125 -1.4375 12.25 C-1.68048828 12.99507812 -1.92347656 13.74015625 -2.17382812 14.5078125 C-2.77332981 16.34158235 -3.38544487 18.17122004 -4 20 C-5.04296875 18.13671875 -5.04296875 18.13671875 -6 16 C-5.3125 13.8125 -5.3125 13.8125 -4 11 C-3.46458724 9.44243562 -2.94475348 7.87946124 -2.4375 6.3125 C-1.72179214 4.10604311 -1.03764763 2.07529526 0 0 Z " fill="#F56D6C" transform="translate(196,158)"/>
<path d="M0 0 C0.66 0 1.32 0 2 0 C1.35729017 5.9129304 -0.19003784 11.34244531 -2 17 C-2.33 17 -2.66 17 -3 17 C-2.88506243 15.10353002 -2.75760358 13.20781668 -2.625 11.3125 C-2.55539063 10.25675781 -2.48578125 9.20101562 -2.4140625 8.11328125 C-2.01239911 5.09322731 -1.25930981 2.75921946 0 0 Z " fill="#AF4144" transform="translate(195,219)"/>
<path d="M0 0 C0.99 0.33 1.98 0.66 3 1 C4.1875 4.0625 4.1875 4.0625 5 7 C4.01 7.495 4.01 7.495 3 8 C1.86649466 10.01669827 1.86649466 10.01669827 1 12 C-1 9 -1 9 -0.625 6.5625 C-0.41875 5.716875 -0.2125 4.87125 0 4 C0 2.68 0 1.36 0 0 Z " fill="#E35757" transform="translate(193,152)"/>
<path d="M0 0 C0.33 0.99 0.66 1.98 1 3 C1.66 3.33 2.32 3.66 3 4 C3 4.99 3 5.98 3 7 C1.68 7 0.36 7 -1 7 C-2.68698082 7.61344757 -4.35965807 8.27095914 -6 9 C-5.690625 8.4225 -5.38125 7.845 -5.0625 7.25 C-3.92256867 5.07045276 -3.92256867 5.07045276 -3.5625 2.8125 C-3.376875 2.214375 -3.19125 1.61625 -3 1 C-2.01 0.67 -1.02 0.34 0 0 Z " fill="#D91213" transform="translate(109,113)"/>
<path d="M0 0 C0.66 0.33 1.32 0.66 2 1 C2 3.97 2 6.94 2 10 C1.01 10 0.02 10 -1 10 C-1.33 10.66 -1.66 11.32 -2 12 C-1.85962479 10.18706911 -1.71255111 8.3746557 -1.5625 6.5625 C-1.48128906 5.55316406 -1.40007812 4.54382813 -1.31640625 3.50390625 C-1 1 -1 1 0 0 Z " fill="#C31519" transform="translate(119,247)"/>
<path d="M0 0 C1.1700097 3.91736581 0.69584017 6.97959015 0 11 C-0.66 11 -1.32 11 -2 11 C-2 13.31 -2 15.62 -2 18 C-2.99 18.33 -3.98 18.66 -5 19 C-3.64746536 12.54945018 -1.96939767 6.28894321 0 0 Z " fill="#E19190" transform="translate(132,200)"/>
<path d="M0 0 C0.66 0.33 1.32 0.66 2 1 C1.45144652 5.571279 0.58255197 9.67435795 -1 14 C-1.33 14 -1.66 14 -2 14 C-2.1799928 8.78020872 -1.97094808 4.92737019 0 0 Z " fill="#B03F43" transform="translate(199,205)"/>
<path d="M0 0 C0.66 0.33 1.32 0.66 2 1 C1.34 3.64 0.68 6.28 0 9 C-3.96 9 -7.92 9 -12 9 C-12 8.67 -12 8.34 -12 8 C-8.7 8 -5.4 8 -2 8 C-1.855625 6.865625 -1.71125 5.73125 -1.5625 4.5625 C-1 1 -1 1 0 0 Z " fill="#B01015" transform="translate(151,133)"/>
<path d="M0 0 C1.98 0 3.96 0 6 0 C5.34 2.64 4.68 5.28 4 8 C3.34 7.34 2.68 6.68 2 6 C2 5.01 2 4.02 2 3 C1.01 2.67 0.02 2.34 -1 2 C-0.67 1.34 -0.34 0.68 0 0 Z " fill="#E26462" transform="translate(185,176)"/>
<path d="M0 0 C1.65 0 3.3 0 5 0 C5.33 0.99 5.66 1.98 6 3 C2.91190305 4.76462683 1.76687864 5 -2 5 C-1.34 3.35 -0.68 1.7 0 0 Z " fill="#DE161A" transform="translate(168,90)"/>
<path d="M0 0 C0.97608217 2.92824652 1.08226668 4.95613276 1 8 C0.01 8.33 -0.98 8.66 -2 9 C-2.33 9.99 -2.66 10.98 -3 12 C-4.21386936 8.35839192 -3.6674695 7.66834531 -2.0625 4.3125 C-1.49208984 3.10013672 -1.49208984 3.10013672 -0.91015625 1.86328125 C-0.60980469 1.24839844 -0.30945313 0.63351563 0 0 Z " fill="#D90E15" transform="translate(189,195)"/>
<path d="M0 0 C1.15957207 3.47871621 0.77456651 4.34219645 -0.4375 7.6875 C-0.72496094 8.49574219 -1.01242188 9.30398437 -1.30859375 10.13671875 C-1.65083984 11.05904297 -1.65083984 11.05904297 -2 12 C-2.33 12 -2.66 12 -3 12 C-3.08090971 10.37581255 -3.13914995 8.75048255 -3.1875 7.125 C-3.22230469 6.22007812 -3.25710937 5.31515625 -3.29296875 4.3828125 C-3.19628906 3.59648437 -3.09960938 2.81015625 -3 2 C-2.01 1.34 -1.02 0.68 0 0 Z " fill="#B95156" transform="translate(218,148)"/>
<path d="M0 0 C0 3.38023517 -0.87455622 5.83468937 -2 9 C-2.99 9 -3.98 9 -5 9 C-5.33 9.99 -5.66 10.98 -6 12 C-6.33 11.34 -6.66 10.68 -7 10 C-3.535 5.05 -3.535 5.05 0 0 Z " fill="#DA8183" transform="translate(101,119)"/>
<path d="M0 0 C0.99 0 1.98 0 3 0 C3 2.64 3 5.28 3 8 C2.01 8.33 1.02 8.66 0 9 C0 6.03 0 3.06 0 0 Z " fill="#B40B13" transform="translate(269,104)"/>
<path d="M0 0 C0.66 0 1.32 0 2 0 C2 1.65 2 3.3 2 5 C1.34 5 0.68 5 0 5 C-0.33 6.65 -0.66 8.3 -1 10 C-1.66 9.67 -2.32 9.34 -3 9 C-2.44271087 5.65626525 -1.64826111 2.96687001 0 0 Z " fill="#B50A12" transform="translate(195,214)"/>
<path d="M0 0 C1 2 1 2 0.5 4.9375 C-0.24846895 8.02952435 -0.24846895 8.02952435 1 11 C0.01 11.495 0.01 11.495 -1 12 C-3 9 -3 9 -2.75 6 C-2 3 -2 3 0 0 Z " fill="#CD7172" transform="translate(88,140)"/>
<path d="M0 0 C0.33 0 0.66 0 1 0 C1.19294408 4.82360189 0.75747614 8.49646738 -1 13 C-1.33 13 -1.66 13 -2 13 C-2.16682272 8.07872966 -2.24828052 4.49656104 0 0 Z " fill="#AA3D41" transform="translate(183,259)"/>
<path d="M0 0 C0.99 0.33 1.98 0.66 3 1 C1.88820837 4.33537489 0.52588702 5.63707344 -2 8 C-2.93423645 4.98968256 -3.04449911 4.13349732 -2 1 C-1.34 0.67 -0.68 0.34 0 0 Z " fill="#D02D34" transform="translate(132,210)"/>
<path d="M0 0 C0.33 0 0.66 0 1 0 C1 2.97 1 5.94 1 9 C0.01 9.495 0.01 9.495 -1 10 C-1.66 10.99 -2.32 11.98 -3 13 C-2.45144652 8.428721 -1.58255197 4.32564205 0 0 Z " fill="#DA8D8F" transform="translate(146,155)"/>
<path d="M0 0 C-1.625 5.75 -1.625 5.75 -5 8 C-5 5.69 -5 3.38 -5 1 C-3 0 -3 0 0 0 Z " fill="#DD4443" transform="translate(159,128)"/>
<path d="M0 0 C0.33 0 0.66 0 1 0 C1 1.98 1 3.96 1 6 C0.01 6.495 0.01 6.495 -1 7 C-2.13350534 9.01669827 -2.13350534 9.01669827 -3 11 C-4 8 -4 8 -3.22265625 5.95703125 C-2.83980469 5.24933594 -2.45695313 4.54164063 -2.0625 3.8125 C-1.68222656 3.09707031 -1.30195313 2.38164062 -0.91015625 1.64453125 C-0.60980469 1.10183594 -0.30945313 0.55914062 0 0 Z " fill="#B30B10" transform="translate(200,200)"/>
<path d="M0 0 C0.33 0 0.66 0 1 0 C1.29296875 6.0546875 1.29296875 6.0546875 1 8 C0.01 8.66 -0.98 9.32 -2 10 C-1.85950482 8.52031676 -1.71245174 7.04125484 -1.5625 5.5625 C-1.48128906 4.73878906 -1.40007812 3.91507813 -1.31640625 3.06640625 C-1 1 -1 1 0 0 Z " fill="#D05252" transform="translate(145,164)"/>
<path d="M0 0 C1.2065625 0.0309375 1.2065625 0.0309375 2.4375 0.0625 C2.1075 1.0525 1.7775 2.0425 1.4375 3.0625 C-0.5 3.625 -0.5 3.625 -2.5625 4.0625 C-3.2225 4.7225 -3.8825 5.3825 -4.5625 6.0625 C-3.48963568 0.08511307 -3.48963568 0.08511307 0 0 Z " fill="#BB090C" transform="translate(114.5625,146.9375)"/>
<path d="M0 0 C0.33 0 0.66 0 1 0 C1 3.3 1 6.6 1 10 C0.01 10 -0.98 10 -2 10 C-1.54177532 6.53058454 -1.10868317 3.32604951 0 0 Z " fill="#DD8985" transform="translate(122,232)"/>
<path d="M0 0 C1.46726798 3.81489674 0.43336419 6.29011622 -1 10 C-1.33 10 -1.66 10 -2 10 C-3.125 4.25 -3.125 4.25 -2 2 C-1.34 2 -0.68 2 0 2 C0 1.34 0 0.68 0 0 Z " fill="#F1605E" transform="translate(184,198)"/>
<path d="M0 0 C0.33 0 0.66 0 1 0 C1 2.31 1 4.62 1 7 C0.01 7 -0.98 7 -2 7 C-2.33 6.01 -2.66 5.02 -3 4 C-1.625 1.8125 -1.625 1.8125 0 0 Z " fill="#B40A13" transform="translate(217,142)"/>
<path d="M0 0 C2.0625 0.4375 2.0625 0.4375 4 1 C3.67 1.66 3.34 2.32 3 3 C2.34 3 1.68 3 1 3 C1 3.66 1 4.32 1 5 C0.01 5 -0.98 5 -2 5 C-1.125 1.125 -1.125 1.125 0 0 Z " fill="#DD1013" transform="translate(93,138)"/>
<path d="M0 0 C2.64 0 5.28 0 8 0 C7.67 0.99 7.34 1.98 7 3 C4.36 2.67 1.72 2.34 -1 2 C-0.67 1.34 -0.34 0.68 0 0 Z " fill="#DA1513" transform="translate(156,90)"/>
<path d="M0 0 C0.99 0 1.98 0 3 0 C2.34 1.98 1.68 3.96 1 6 C0.01 6 -0.98 6 -2 6 C-1.34 4.02 -0.68 2.04 0 0 Z " fill="#AC121C" transform="translate(204,186)"/>
<path d="M0 0 C0.33 0 0.66 0 1 0 C1 2.64 1 5.28 1 8 C0.01 8.33 -0.98 8.66 -2 9 C-1.34 6.03 -0.68 3.06 0 0 Z " fill="#C41818" transform="translate(192,176)"/>
<path d="M0 0 C0.66 0.99 1.32 1.98 2 3 C0.35 4.65 -1.3 6.3 -3 8 C-3.36923077 3.44615385 -3.36923077 3.44615385 -1.5 1.1875 C-1.005 0.795625 -0.51 0.40375 0 0 Z " fill="#C33F3B" transform="translate(105,114)"/>
<path d="M0 0 C-1.32 0.99 -2.64 1.98 -4 3 C-5.32 2.34 -6.64 1.68 -8 1 C-8 0.67 -8 0.34 -8 0 C-4.71303767 -0.79953138 -3.28976808 -1.09658936 0 0 Z " fill="#B44A4F" transform="translate(106,161)"/>
<path d="M0 0 C0.66 0.33 1.32 0.66 2 1 C1.67 2.65 1.34 4.3 1 6 C-0.32 6.33 -1.64 6.66 -3 7 C-2.34 6.01 -1.68 5.02 -1 4 C-1 3.01 -1 2.02 -1 1 C-0.67 0.67 -0.34 0.34 0 0 Z " fill="#D8393B" transform="translate(119,100)"/>
<path d="M0 0 C-0.33 0.99 -0.66 1.98 -1 3 C-3.31 3 -5.62 3 -8 3 C-5.53387212 -0.1151089 -3.89156016 -0.31553191 0 0 Z " fill="#C91113" transform="translate(128,99)"/>
</svg>
